<svg id="Layer_1" data-name="Layer 1" xmlns="http://www.w3.org/2000/svg" viewBox="0 0 1280 1280"><defs><style>.cls-1,.cls-2,.cls-3{fill:#020202;}.cls-2,.cls-3{stroke:#020202;stroke-miterlimit:10;}.cls-3{stroke-width:5px;}.cls-4{font-size:344.09px;fill:#fff;font-family:Orbitron-Bold, Orbitron;font-weight:700;}</style></defs><title>Artboard 1</title><rect class="cls-1" x="159.28" y="105.62" width="962.77" height="541.49"/><path class="cls-1" d="M1122,639.61H198.43c-12.45,0-25.14-.71-37.58,0-.52,0-1.05,0-1.57,0l7.5,7.5V127.75c0-7,.65-14.28,0-21.21,0-.3,0-.62,0-.92l-7.5,7.5h923.61c12.45,0,25.14.71,37.58,0,.52,0,1.05,0,1.57,0l-7.5-7.5v475c0,21.81-.75,43.78,0,65.58,0,.31,0,.61,0,.92,0,9.65,15,9.67,15,0v-475c0-21.81.75-43.78,0-65.58,0-.31,0-.61,0-.92a7.61,7.61,0,0,0-7.5-7.5H198.43c-12.52,0-25.07-.26-37.58,0-.52,0-1,0-1.57,0a7.61,7.61,0,0,0-7.5,7.5v475c0,21.81-.75,43.78,0,65.58,0,.31,0,.61,0,.92a7.61,7.61,0,0,0,7.5,7.5h923.61c12.52,0,25.07.26,37.58,0,.52,0,1,0,1.57,0C1131.69,654.61,1131.71,639.61,1122,639.61Z"/><rect class="cls-2" x="623.11" y="669.79" width="70.21" height="10.64" transform="translate(-16.89 1333.32) rotate(-90)"/><rect class="cls-2" x="580.55" y="669.79" width="70.21" height="10.64" transform="translate(-59.45 1290.77) rotate(-90)"/><line class="cls-3" x1="663.53" y1="710.21" x2="754.89" y2="769.09"/><path class="cls-3" d="M536.42,769.09c75.41,29.81,92.66,47.72,218.47,0"/><path class="cls-3" d="M663.57,708.81H613.91c-11.65,9.19-76.48,60.42-76.48,60.42"/><text class="cls-4" transform="matrix(1.2, 0, 0, 1, 135.34, 489.76)">NJP</text></svg>